<svg xmlns="http://www.w3.org/2000/svg" width="280" height="64" viewBox="0 0 280 64" fill="none">
  <g id="Sunfinity-Logo">
    <!-- Sun Icon -->
    <g id="Sun-Icon" transform="translate(12, 12)">
      <!-- Sun rays -->
      <path d="M20 2v4" stroke="#f59e0b" stroke-width="3" stroke-linecap="round" stroke-linejoin="round" />
      <path d="M20 34v4" stroke="#f59e0b" stroke-width="3" stroke-linecap="round" stroke-linejoin="round" />
      <path d="M5.86 5.86l2.82 2.82" stroke="#f59e0b" stroke-width="3" stroke-linecap="round" stroke-linejoin="round" />
      <path d="M31.32 31.32l2.82 2.82" stroke="#f59e0b" stroke-width="3" stroke-linecap="round" stroke-linejoin="round" />
      <path d="M2 20h4" stroke="#f59e0b" stroke-width="3" stroke-linecap="round" stroke-linejoin="round" />
      <path d="M34 20h4" stroke="#f59e0b" stroke-width="3" stroke-linecap="round" stroke-linejoin="round" />
      <path d="M5.86 34.14l2.82-2.82" stroke="#f59e0b" stroke-width="3" stroke-linecap="round" stroke-linejoin="round" />
      <path d="M31.32 8.68l2.82-2.82" stroke="#f59e0b" stroke-width="3" stroke-linecap="round" stroke-linejoin="round" />
      
      <!-- Sun center -->
      <circle cx="20" cy="20" r="9" fill="#f59e0b" />
    </g>
    
    <!-- Sunfinity Text -->
    <g id="Logo-Text" transform="translate(64, 34)">
      <!-- S -->
      <path d="M1.952 14.384C3.216 15.808 5.056 16.52 7.472 16.52C9.056 16.52 10.272 16.184 11.12 15.512C11.968 14.84 12.392 13.928 12.392 12.776C12.392 11.8 12.096 11.048 11.504 10.52C10.928 9.976 10.144 9.552 9.152 9.248C8.176 8.944 6.992 8.632 5.6 8.312C3.936 7.944 2.512 7.496 1.328 6.968C0.144 6.44 -0.608 5.6 -0.92 4.448C-1.232 3.28 -0.96 1.728 -0.104 -0.208C0.752 -2.144 2.144 -3.68 4.072 -4.816C6.016 -5.952 8.32 -6.52 10.984 -6.52C13.336 -6.52 15.28 -6.088 16.816 -5.224C18.368 -4.376 19.44 -3.168 20.032 -1.6L15.808 0.664C15.344 -0.136 14.68 -0.76 13.816 -1.208C12.968 -1.656 11.992 -1.88 10.888 -1.88C9.256 -1.88 7.968 -1.536 7.024 -0.848C6.096 -0.176 5.536 0.664 5.344 1.672C5.2 2.472 5.408 3.128 5.968 3.64C6.528 4.136 7.304 4.544 8.296 4.864C9.304 5.168 10.48 5.48 11.824 5.8C13.44 6.168 14.84 6.624 16.024 7.168C17.208 7.696 17.952 8.544 18.256 9.712C18.576 10.864 18.304 12.384 17.44 14.272C16.576 16.144 15.184 17.624 13.264 18.712C11.344 19.784 9.04 20.32 6.352 20.32C3.984 20.32 1.968 19.84 0.304 18.88C-1.36 17.92 -2.52 16.568 -3.176 14.824L1.048 12.56C1.32 13.416 1.76 14.072 1.952 14.384Z" fill="#111827"/>
      <!-- u -->
      <path d="M35.4173 19.52H30.1693V6.584C30.1693 5.352 29.9933 4.4 29.6413 3.728C29.2893 3.056 28.7133 2.72 27.9133 2.72C27.4973 2.72 27.0813 2.832 26.6653 3.056C26.2653 3.264 25.9133 3.552 25.6093 3.92C25.3053 4.272 25.0653 4.672 24.8893 5.12C24.7133 5.568 24.6253 6.032 24.6253 6.512V19.52H19.3773V-6.112H24.6253V-0.112C24.6253 1.232 24.5853 2.536 24.5053 3.8H24.6253C25.0413 2.808 25.7453 1.96 26.7373 1.256C27.7453 0.536 28.9693 0.176 30.4093 0.176C32.4893 0.176 33.9773 0.864 34.8733 2.24C35.7693 3.6 36.2173 5.496 36.2173 7.928C36.2013 13.048 36.1933 16.92 36.1933 19.544L35.4173 19.52Z" fill="#111827"/>
      <!-- n -->
      <path d="M50.9405 19.52H45.6925V6.584C45.6925 5.352 45.5165 4.4 45.1645 3.728C44.8125 3.056 44.2365 2.72 43.4365 2.72C43.0205 2.72 42.6045 2.832 42.1885 3.056C41.7885 3.264 41.4365 3.552 41.1325 3.92C40.8285 4.272 40.5885 4.672 40.4125 5.12C40.2365 5.568 40.1485 6.032 40.1485 6.512V19.52H34.9005V0.52H39.8525L40.2205 2.68H40.3405C40.7565 1.688 41.4605 0.84 42.4525 0.136C43.4605 -0.584 44.6845 -0.944 46.1245 -0.944C48.2045 -0.944 49.6925 -0.256 50.5885 1.12C51.4845 2.48 51.9325 4.376 51.9325 6.808C51.9165 11.928 51.9085 15.8 51.9085 18.424L50.9405 19.52Z" fill="#111827"/>
      <!-- f -->
      <path d="M57.457 19.52H52.209V0.976H57.457V19.52ZM59.345 -3.184C59.345 -2.176 58.993 -1.36 58.289 -0.736C57.601 -0.112 56.729 0.2 55.673 0.2C54.617 0.2 53.745 -0.112 53.057 -0.736C52.369 -1.36 52.025 -2.176 52.025 -3.184C52.025 -4.192 52.369 -5.008 53.057 -5.632C53.745 -6.256 54.617 -6.568 55.673 -6.568C56.729 -6.568 57.601 -6.256 58.289 -5.632C58.993 -5.008 59.345 -4.192 59.345 -3.184Z" fill="#111827"/>
      <!-- i -->
      <path d="M71.9143 19.52H66.6663V0.976H71.9143V19.52ZM73.8023 -3.184C73.8023 -2.176 73.4503 -1.36 72.7463 -0.736C72.0583 -0.112 71.1863 0.2 70.1303 0.2C69.0743 0.2 68.2023 -0.112 67.5143 -0.736C66.8263 -1.36 66.4823 -2.176 66.4823 -3.184C66.4823 -4.192 66.8263 -5.008 67.5143 -5.632C68.2023 -6.256 69.0743 -6.568 70.1303 -6.568C71.1863 -6.568 72.0583 -6.256 72.7463 -5.632C73.4503 -5.008 73.8023 -4.192 73.8023 -3.184Z" fill="#111827"/>
      <!-- n -->
      <path d="M89.3715 19.52H84.1235V6.584C84.1235 5.352 83.9475 4.4 83.5955 3.728C83.2435 3.056 82.6675 2.72 81.8675 2.72C81.4515 2.72 81.0355 2.832 80.6195 3.056C80.2195 3.264 79.8675 3.552 79.5635 3.92C79.2595 4.272 79.0195 4.672 78.8435 5.12C78.6675 5.568 78.5795 6.032 78.5795 6.512V19.52H73.3315V0.52H78.2835L78.6515 2.68H78.7715C79.1875 1.688 79.8915 0.84 80.8835 0.136C81.8915 -0.584 83.1155 -0.944 84.5555 -0.944C86.6355 -0.944 88.1235 -0.256 89.0195 1.12C89.9155 2.48 90.3635 4.376 90.3635 6.808C90.3475 11.928 90.3395 15.8 90.3395 18.424L89.3715 19.52Z" fill="#111827"/>
      <!-- i -->
      <path d="M102.816 19.52H97.568V0.976H102.816V19.52ZM104.704 -3.184C104.704 -2.176 104.352 -1.36 103.648 -0.736C102.96 -0.112 102.088 0.2 101.032 0.2C99.976 0.2 99.104 -0.112 98.416 -0.736C97.728 -1.36 97.384 -2.176 97.384 -3.184C97.384 -4.192 97.728 -5.008 98.416 -5.632C99.104 -6.256 99.976 -6.568 101.032 -6.568C102.088 -6.568 102.96 -6.256 103.648 -5.632C104.352 -5.008 104.704 -4.192 104.704 -3.184Z" fill="#111827"/>
      <!-- t -->
      <path d="M115.863 19.52H110.615V4.936H106.767V0.976H110.615V-1.952C110.615 -4.112 111.255 -5.76 112.535 -6.896C113.831 -8.032 115.623 -8.6 117.911 -8.6C118.407 -8.6 118.935 -8.568 119.495 -8.504C120.071 -8.456 120.711 -8.352 121.415 -8.192V-3.808C120.967 -3.92 120.543 -4.008 120.143 -4.072C119.743 -4.136 119.343 -4.168 118.943 -4.168C118.159 -4.168 117.567 -3.976 117.167 -3.592C116.783 -3.224 116.591 -2.672 116.591 -1.936V0.976H121.079V4.936H116.591V19.52H115.863Z" fill="#111827"/>
      <!-- y -->
      <path d="M140.434 19.52H135.186V6.584C135.186 5.352 135.01 4.4 134.658 3.728C134.306 3.056 133.73 2.72 132.93 2.72C132.514 2.72 132.098 2.832 131.682 3.056C131.282 3.264 130.93 3.552 130.626 3.92C130.322 4.272 130.082 4.672 129.906 5.12C129.73 5.568 129.642 6.032 129.642 6.512V19.52H124.394V0.976H129.418L129.786 3.136H129.906C130.322 2.144 131.026 1.296 132.018 0.592C133.026 -0.128 134.226 -0.488 135.618 -0.488C137.698 -0.488 139.186 0.2 140.082 1.576C140.978 2.936 141.426 4.832 141.426 7.264C141.41 11.232 141.402 14.624 141.402 17.44L140.434 19.52Z" fill="#111827"/>
    </g>
  </g>
</svg> 